<svg width="24" height="24" viewBox="0 0 24 24" fill="none" xmlns="http://www.w3.org/2000/svg">
  <path d="M6 3H18C19.1046 3 20 3.89543 20 5V19C20 20.1046 19.1046 21 18 21H6C4.89543 21 4 20.1046 4 19V5C4 3.89543 4.89543 3 6 3Z" stroke="#1DC071" stroke-width="2" stroke-linecap="round" stroke-linejoin="round"/>
  <path d="M12 9C13.6569 9 15 7.65685 15 6C15 4.34315 13.6569 3 12 3C10.3431 3 9 4.34315 9 6C9 7.65685 10.3431 9 12 9Z" stroke="#1DC071" stroke-width="2" stroke-linecap="round" stroke-linejoin="round"/>
  <path d="M19 14C19 14.5304 18.7893 15.0391 18.4142 15.4142C18.0391 15.7893 17.5304 16 17 16H7C6.46957 16 5.96086 15.7893 5.58579 15.4142C5.21071 15.0391 5 14.5304 5 14" stroke="#1DC071" stroke-width="2" stroke-linecap="round" stroke-linejoin="round"/>
  <path d="M14 6C14 7.65685 12.6569 9 11 9C9.34315 9 8 7.65685 8 6C8 4.34315 9.34315 3 11 3C12.6569 3 14 4.34315 14 6Z" stroke="#1DC071" stroke-width="2" stroke-linecap="round" stroke-linejoin="round"/>
</svg>

